<?xml version="1.0" standalone="no"?>
<!DOCTYPE svg PUBLIC "-//W3C//DTD SVG 20010904//EN"
 "http://www.w3.org/TR/2001/REC-SVG-20010904/DTD/svg10.dtd">
<svg version="1.0" xmlns="http://www.w3.org/2000/svg"
 width="300.000000pt" height="300.000000pt" viewBox="0 0 300.000000 300.000000"
 preserveAspectRatio="xMidYMid meet">
<metadata>
Created by potrace 1.14, written by Peter Selinger 2001-2017
</metadata>
<g transform="translate(0.000000,300.000000) scale(0.100000,-0.100000)"
fill="#000000" stroke="none">
<path d="M1251 2979 c-358 -62 -671 -243 -909 -525 -131 -153 -256 -409 -303
-614 -43 -188 -48 -448 -11 -626 49 -241 163 -484 309 -663 85 -103 307 -298
363 -319 8 -3 17 -8 20 -11 24 -27 281 -144 344 -157 10 -2 33 -8 50 -13 99
-32 254 -50 411 -46 88 2 174 6 190 9 17 4 66 14 110 22 434 87 840 413 1037
835 28 60 84 218 92 259 3 14 13 68 24 121 38 194 23 453 -38 669 -113 399
-420 758 -802 938 -72 33 -238 94 -238 87 0 -2 -11 0 -25 5 -28 11 -62 18
-115 27 -19 3 -53 8 -76 12 -78 15 -325 9 -433 -10z m140 -199 c-4 -19 -7
-100 -6 -180 1 -121 4 -150 19 -172 38 -59 134 -56 168 5 15 27 20 336 6 354
-22 28 24 35 117 17 17 -3 46 -8 65 -11 57 -8 262 -79 333 -115 l67 -34 -39
-17 c-46 -21 -91 -95 -91 -152 0 -82 109 -123 165 -62 37 39 65 103 61 136 -2
17 -1 31 1 31 12 0 99 -75 178 -155 87 -88 195 -230 195 -256 0 -9 -3 -10 -11
-2 -28 28 -145 -28 -176 -84 -36 -67 22 -147 100 -138 47 6 126 63 135 98 l8
31 21 -45 c22 -46 52 -131 59 -163 2 -10 8 -33 13 -50 19 -59 45 -246 35 -246
-3 0 -15 5 -27 12 -31 17 -312 19 -353 3 -68 -28 -86 -105 -35 -156 16 -16 35
-30 43 -30 7 -1 81 -2 163 -3 107 -2 158 1 177 11 36 17 36 17 32 -14 -15
-142 -41 -252 -86 -372 -28 -74 -33 -81 -44 -65 -23 33 -45 52 -83 70 -52 25
-81 25 -118 3 -53 -33 -61 -111 -15 -152 32 -29 106 -61 134 -59 l29 2 -18
-27 c-63 -102 -177 -230 -273 -307 -89 -72 -92 -73 -86 -40 7 34 -36 127 -67
147 -58 37 -125 21 -148 -36 -17 -41 -14 -67 13 -114 26 -46 45 -64 78 -80 24
-10 22 -12 -53 -48 -83 -39 -247 -98 -247 -88 0 3 -7 0 -15 -7 -8 -7 -15 -10
-15 -7 0 3 -15 1 -32 -4 -18 -5 -58 -12 -88 -15 -30 -3 -57 -7 -60 -9 -3 -2
-5 82 -5 186 0 188 0 189 -25 213 -44 45 -113 38 -150 -14 -18 -25 -19 -42
-17 -191 1 -90 4 -171 7 -179 4 -11 -3 -14 -30 -13 -45 1 -124 11 -141 18 -8
3 -27 7 -44 9 -80 11 -295 91 -302 112 -2 7 7 14 21 18 31 8 86 100 86 145 0
20 -10 42 -29 63 -23 26 -35 32 -68 31 -39 -1 -93 -34 -93 -57 0 -5 -7 -18
-17 -28 -9 -11 -16 -36 -17 -63 -1 -25 -2 -45 -4 -45 -6 0 -97 64 -127 90 -99
84 -275 282 -275 309 0 4 15 5 34 3 38 -4 99 23 134 61 35 37 37 90 6 127 -38
44 -81 48 -144 14 -51 -27 -96 -75 -83 -88 3 -3 2 -6 -4 -6 -10 0 -44 75 -82
180 -26 71 -51 180 -58 252 l-5 58 30 -11 c18 -6 93 -9 184 -7 134 3 156 5
180 23 50 37 49 119 -2 157 -23 16 -45 19 -185 19 -88 1 -172 -4 -187 -9 l-26
-11 4 47 c2 26 5 64 6 84 2 21 7 38 11 38 5 0 6 4 3 8 -13 21 85 332 105 332
4 0 10 -8 13 -18 8 -23 81 -70 120 -78 88 -16 150 78 102 152 -19 28 -87 65
-134 73 l-33 6 32 48 c57 87 179 218 271 291 l47 38 -1 -36 c-2 -47 47 -126
90 -148 64 -31 133 11 135 82 1 51 -47 129 -92 151 l-34 16 95 46 c53 26 103
47 111 47 9 0 18 4 21 9 9 14 328 85 343 77 1 -1 -2 -17 -6 -36z"/>
<path d="M1465 2343 c-43 -11 -44 -18 -44 -447 0 -235 4 -419 10 -433 5 -14
141 -158 303 -319 253 -254 297 -294 323 -294 36 0 63 27 63 64 0 22 -42 69
-222 250 -123 122 -229 229 -236 238 -11 14 22 15 313 17 179 1 333 5 341 8
21 8 35 49 28 78 -10 41 -40 45 -371 42 -172 -1 -313 1 -313 6 0 4 102 109
226 233 124 124 232 237 240 252 11 22 11 29 -3 53 -18 30 -34 37 -68 31 -12
-2 -129 -111 -260 -243 l-240 -239 -5 339 c-3 187 -7 341 -10 344 -8 7 -48 27
-52 26 -2 -1 -12 -4 -23 -6z"/>
</g>
</svg>
