<?xml version="1.0" encoding="iso-8859-1"?>
<svg version="1.1" id="Capa_1" xmlns="http://www.w3.org/2000/svg" xmlns:xlink="http://www.w3.org/1999/xlink" x="0px" y="0px"
	 viewBox="0 0 60 60" style="enable-background:new 0 0 60 60;" xml:space="preserve">
<path style="fill:none;stroke:#DC9628;stroke-width:2;stroke-linecap:round;stroke-linejoin:round;stroke-miterlimit:10;" d="M34,12
	V8c0-2.209-1.791-4-4-4s-4,1.791-4,4v4.072"/>
<path style="fill:#EEAF4B;" d="M16.491,50.638c10.701,1.847,16.658,1.847,27.36,0L53.341,49l0,0c-4.685-4.657-7.317-10.415-7.317-17
	v-9c0.038-6.047-3.957-10.478-7.946-12.301c-4.999-2.285-10.815-2.294-15.806,0.008C18.319,12.53,14.038,16.958,14,23v9
	c0,6.585-2.315,12.343-7,17l0,0L16.491,50.638z"/>
<path style="fill:#DC9628;" d="M21.906,51.46C23.35,54.728,26.508,57,30.183,57c3.676,0,6.834-2.273,8.278-5.543
	C32.533,52.209,27.83,52.21,21.906,51.46z"/>
</svg>
